<?xml version="1.0"?>
<!-- Generated by SVGo -->
<svg width="295.872mm" height="131.000mm"
     viewBox="0.000 0.000 295.872 131.000"
     xmlns="http://www.w3.org/2000/svg" 
     xmlns:xlink="http://www.w3.org/1999/xlink">
<polygon points="286.265,5.016 286.654,5.062 287.039,5.139 287.417,5.245 287.786,5.381 288.142,5.545 288.485,5.737 288.811,5.955 289.119,6.198 289.408,6.465 289.674,6.753 289.917,7.062 290.135,7.388 290.327,7.731 290.492,8.087 290.628,8.455 290.734,8.833 290.811,9.218 290.857,9.608 290.872,10.001 290.872,121.000 290.857,121.393 290.811,121.783 290.734,122.168 290.628,122.545 290.492,122.914 290.327,123.270 290.135,123.613 289.917,123.939 289.674,124.248 289.408,124.536 289.119,124.802 288.811,125.045 288.485,125.264 288.142,125.455 287.786,125.620 287.417,125.756 287.039,125.862 286.654,125.939 286.265,125.985 285.872,126.000 10.001,126.000 9.608,125.985 9.218,125.939 8.833,125.862 8.455,125.756 8.087,125.620 7.731,125.455 7.388,125.264 7.062,125.045 6.753,124.802 6.465,124.536 6.198,124.248 5.955,123.939 5.737,123.613 5.545,123.270 5.381,122.914 5.245,122.545 5.139,122.168 5.062,121.783 5.016,121.393 5.000,121.000 5.001,10.000 5.016,9.608 5.062,9.218 5.139,8.833 5.245,8.455 5.381,8.087 5.545,7.731 5.737,7.388 5.955,7.062 6.198,6.753 6.465,6.465 6.753,6.198 7.062,5.955 7.388,5.737 7.731,5.545 8.087,5.381 8.455,5.245 8.833,5.139 9.218,5.062 9.608,5.016 10.001,5.000 285.872,5.000" style="fill:none;stroke-width:0.050000mm;stroke:black"/>
<polygon points="125.122,115.507 138.762,117.912 141.167,104.273 127.527,101.868" style="fill:none;stroke-width:0.050000mm;stroke:black"/>
<polygon points="155.334,104.214 157.739,117.853 171.378,115.448 168.973,101.809" style="fill:none;stroke-width:0.050000mm;stroke:black"/>
<polygon points="107.189,107.509 120.828,109.914 123.233,96.275 109.594,93.869" style="fill:none;stroke-width:0.050000mm;stroke:black"/>
<polygon points="173.267,96.216 175.672,109.855 189.312,107.450 186.907,93.811" style="fill:none;stroke-width:0.050000mm;stroke:black"/>
<polygon points="89.586,97.635 103.226,100.040 105.631,86.400 91.991,83.995" style="fill:none;stroke-width:0.050000mm;stroke:black"/>
<polygon points="190.870,86.341 193.275,99.981 206.915,97.576 204.510,83.936" style="fill:none;stroke-width:0.050000mm;stroke:black"/>
<polygon points="128.430,96.747 142.070,99.152 144.475,85.512 130.835,83.107" style="fill:none;stroke-width:0.050000mm;stroke:black"/>
<polygon points="152.026,85.453 154.431,99.093 168.070,96.688 165.665,83.048" style="fill:none;stroke-width:0.050000mm;stroke:black"/>
<polygon points="32.477,92.401 46.117,94.806 48.522,81.166 34.882,78.761" style="fill:none;stroke-width:0.050000mm;stroke:black"/>
<polygon points="247.979,81.108 250.384,94.747 264.024,92.342 261.619,78.703" style="fill:none;stroke-width:0.050000mm;stroke:black"/>
<polygon points="52.065,91.019 65.705,93.424 68.110,79.784 54.470,77.379" style="fill:none;stroke-width:0.050000mm;stroke:black"/>
<polygon points="228.391,79.725 230.796,93.365 244.436,90.960 242.031,77.320" style="fill:none;stroke-width:0.050000mm;stroke:black"/>
<polygon points="13.717,89.093 27.356,91.498 29.761,77.858 16.121,75.453" style="fill:none;stroke-width:0.050000mm;stroke:black"/>
<polygon points="266.740,77.800 269.145,91.439 282.784,89.034 280.379,75.395" style="fill:none;stroke-width:0.050000mm;stroke:black"/>
<polygon points="110.497,88.748 124.136,91.154 126.541,77.514 112.902,75.109" style="fill:none;stroke-width:0.050000mm;stroke:black"/>
<polygon points="169.959,77.455 172.364,91.095 186.004,88.690 183.599,75.050" style="fill:none;stroke-width:0.050000mm;stroke:black"/>
<polygon points="71.983,87.761 85.623,90.166 88.028,76.526 74.388,74.121" style="fill:none;stroke-width:0.050000mm;stroke:black"/>
<polygon points="208.473,76.467 210.878,90.107 224.518,87.702 222.113,74.062" style="fill:none;stroke-width:0.050000mm;stroke:black"/>
<polygon points="92.894,78.874 106.534,81.279 108.939,67.640 95.299,65.234" style="fill:none;stroke-width:0.050000mm;stroke:black"/>
<polygon points="187.562,67.581 189.967,81.220 203.607,78.815 201.202,65.176" style="fill:none;stroke-width:0.050000mm;stroke:black"/>
<polygon points="35.785,73.640 49.425,76.045 51.830,62.406 38.190,60.001" style="fill:none;stroke-width:0.050000mm;stroke:black"/>
<polygon points="244.671,62.347 247.076,75.987 260.715,73.582 258.311,59.942" style="fill:none;stroke-width:0.050000mm;stroke:black"/>
<polygon points="55.373,72.258 69.013,74.663 71.418,61.024 57.778,58.619" style="fill:none;stroke-width:0.050000mm;stroke:black"/>
<polygon points="225.083,60.965 227.488,74.604 241.128,72.199 238.723,58.560" style="fill:none;stroke-width:0.050000mm;stroke:black"/>
<polygon points="17.025,70.332 30.664,72.737 33.069,59.098 19.430,56.693" style="fill:none;stroke-width:0.050000mm;stroke:black"/>
<polygon points="263.432,59.039 265.837,72.679 279.476,70.274 277.071,56.634" style="fill:none;stroke-width:0.050000mm;stroke:black"/>
<polygon points="113.805,69.988 127.444,72.393 129.849,58.753 116.210,56.348" style="fill:none;stroke-width:0.050000mm;stroke:black"/>
<polygon points="166.651,58.694 169.056,72.334 182.696,69.929 180.291,56.289" style="fill:none;stroke-width:0.050000mm;stroke:black"/>
<polygon points="75.291,69.000 88.931,71.405 91.336,57.766 77.696,55.360" style="fill:none;stroke-width:0.050000mm;stroke:black"/>
<polygon points="205.165,57.707 207.570,71.346 221.210,68.941 218.805,55.302" style="fill:none;stroke-width:0.050000mm;stroke:black"/>
<polygon points="96.202,60.114 109.842,62.519 112.247,48.879 98.607,46.474" style="fill:none;stroke-width:0.050000mm;stroke:black"/>
<polygon points="184.254,48.820 186.659,62.460 200.299,60.055 197.894,46.415" style="fill:none;stroke-width:0.050000mm;stroke:black"/>
<polygon points="39.093,54.880 52.733,57.285 55.138,43.645 41.498,41.240" style="fill:none;stroke-width:0.050000mm;stroke:black"/>
<polygon points="241.363,43.586 243.768,57.226 257.407,54.821 255.003,41.181" style="fill:none;stroke-width:0.050000mm;stroke:black"/>
<polygon points="58.681,53.498 72.321,55.903 74.726,42.263 61.086,39.858" style="fill:none;stroke-width:0.050000mm;stroke:black"/>
<polygon points="221.775,42.204 224.180,55.844 237.820,53.439 235.415,39.799" style="fill:none;stroke-width:0.050000mm;stroke:black"/>
<polygon points="20.333,51.572 33.972,53.977 36.377,40.337 22.738,37.932" style="fill:none;stroke-width:0.050000mm;stroke:black"/>
<polygon points="260.124,40.278 262.529,53.918 276.168,51.513 273.763,37.873" style="fill:none;stroke-width:0.050000mm;stroke:black"/>
<polygon points="117.113,51.227 130.752,53.632 133.157,39.993 119.518,37.588" style="fill:none;stroke-width:0.050000mm;stroke:black"/>
<polygon points="163.343,39.934 165.748,53.573 179.388,51.168 176.983,37.529" style="fill:none;stroke-width:0.050000mm;stroke:black"/>
<polygon points="78.599,50.239 92.239,52.645 94.644,39.005 81.004,36.600" style="fill:none;stroke-width:0.050000mm;stroke:black"/>
<polygon points="201.857,38.946 204.262,52.586 217.902,50.181 215.497,36.541" style="fill:none;stroke-width:0.050000mm;stroke:black"/>
<polygon points="99.510,41.353 113.150,43.758 115.555,30.119 101.915,27.714" style="fill:none;stroke-width:0.050000mm;stroke:black"/>
<polygon points="180.946,30.060 183.351,43.699 196.991,41.294 194.586,27.655" style="fill:none;stroke-width:0.050000mm;stroke:black"/>
<polygon points="42.401,36.119 56.041,38.524 58.446,24.885 44.806,22.480" style="fill:none;stroke-width:0.050000mm;stroke:black"/>
<polygon points="238.055,24.826 240.460,38.465 254.100,36.060 251.695,22.421" style="fill:none;stroke-width:0.050000mm;stroke:black"/>
<polygon points="61.989,34.737 75.629,37.142 78.034,23.503 64.394,21.098" style="fill:none;stroke-width:0.050000mm;stroke:black"/>
<polygon points="218.467,23.444 220.872,37.083 234.512,34.678 232.107,21.039" style="fill:none;stroke-width:0.050000mm;stroke:black"/>
<polygon points="23.641,32.811 37.280,35.216 39.685,21.577 26.046,19.172" style="fill:none;stroke-width:0.050000mm;stroke:black"/>
<polygon points="256.816,21.518 259.221,35.157 272.860,32.751 270.455,19.113" style="fill:none;stroke-width:0.050000mm;stroke:black"/>
<polygon points="120.421,32.467 134.060,34.872 136.465,21.232 122.826,18.827" style="fill:none;stroke-width:0.050000mm;stroke:black"/>
<polygon points="160.035,21.173 162.440,34.813 176.080,32.407 173.675,18.768" style="fill:none;stroke-width:0.050000mm;stroke:black"/>
<polygon points="81.907,31.479 95.547,33.884 97.952,20.244 84.312,17.839" style="fill:none;stroke-width:0.050000mm;stroke:black"/>
<polygon points="198.549,20.185 200.954,33.825 214.594,31.420 212.189,17.780" style="fill:none;stroke-width:0.050000mm;stroke:black"/>
</svg>
