  0
SECTION
  2
HEADER
  9
$ACADVER
  1
AC1009
  9
$EXTMIN
 10
0.0
 20
0.0
 30
0.0
  9
$EXTMAX
 10
1000.0
 20
1000.0
 30
0.0
  9
$FILLMODE
 70
 0
  9
$SPLFRAME
 70
 1
  0
ENDSEC
  0
SECTION
  2
TABLES
  0
TABLE
  2
LAYER
 70
1
  0
LAYER
  2
0
 70
     0
 62
     7
  6
CONTINUOUS
  0
ENDTAB
  0
ENDSEC
  0
SECTION
  2
ENTITIES
  0
LINE
  8
0
 62
     0
 10
281.36
 20
121.245
 30
0.0
 11
281.748
 21
121.199
 31
0.0
  0
LINE
  8
0
 62
     0
 10
281.748
 20
121.199
 30
0.0
 11
282.134
 21
121.123
 31
0.0
  0
LINE
  8
0
 62
     0
 10
282.134
 20
121.123
 30
0.0
 11
282.512
 21
121.017
 31
0.0
  0
LINE
  8
0
 62
     0
 10
282.512
 20
121.017
 30
0.0
 11
282.881
 21
120.88
 31
0.0
  0
LINE
  8
0
 62
     0
 10
282.881
 20
120.88
 30
0.0
 11
283.236
 21
120.716
 31
0.0
  0
LINE
  8
0
 62
     0
 10
283.236
 20
120.716
 30
0.0
 11
283.58
 21
120.525
 31
0.0
  0
LINE
  8
0
 62
     0
 10
283.58
 20
120.525
 30
0.0
 11
283.906
 21
120.305
 31
0.0
  0
LINE
  8
0
 62
     0
 10
283.906
 20
120.305
 30
0.0
 11
284.214
 21
120.063
 31
0.0
  0
LINE
  8
0
 62
     0
 10
284.214
 20
120.063
 30
0.0
 11
284.503
 21
119.796
 31
0.0
  0
LINE
  8
0
 62
     0
 10
284.503
 20
119.796
 30
0.0
 11
284.769
 21
119.508
 31
0.0
  0
LINE
  8
0
 62
     0
 10
284.769
 20
119.508
 30
0.0
 11
285.011
 21
119.199
 31
0.0
  0
LINE
  8
0
 62
     0
 10
285.011
 20
119.199
 30
0.0
 11
285.229
 21
118.874
 31
0.0
  0
LINE
  8
0
 62
     0
 10
285.229
 20
118.874
 30
0.0
 11
285.422
 21
118.531
 31
0.0
  0
LINE
  8
0
 62
     0
 10
285.422
 20
118.531
 30
0.0
 11
285.586
 21
118.174
 31
0.0
  0
LINE
  8
0
 62
     0
 10
285.586
 20
118.174
 30
0.0
 11
285.722
 21
117.806
 31
0.0
  0
LINE
  8
0
 62
     0
 10
285.722
 20
117.806
 30
0.0
 11
285.829
 21
117.428
 31
0.0
  0
LINE
  8
0
 62
     0
 10
285.829
 20
117.428
 30
0.0
 11
285.906
 21
117.044
 31
0.0
  0
LINE
  8
0
 62
     0
 10
285.906
 20
117.044
 30
0.0
 11
285.951
 21
116.654
 31
0.0
  0
LINE
  8
0
 62
     0
 10
285.951
 20
116.654
 30
0.0
 11
285.966
 21
116.26
 31
0.0
  0
LINE
  8
0
 62
     0
 10
285.966
 20
116.26
 30
0.0
 11
285.966
 21
5.26136
 31
0.0
  0
LINE
  8
0
 62
     0
 10
285.966
 20
5.26136
 30
0.0
 11
285.951
 21
4.86862
 31
0.0
  0
LINE
  8
0
 62
     0
 10
285.951
 20
4.86862
 30
0.0
 11
285.906
 21
4.47862
 31
0.0
  0
LINE
  8
0
 62
     0
 10
285.906
 20
4.47862
 30
0.0
 11
285.829
 21
4.09279
 31
0.0
  0
LINE
  8
0
 62
     0
 10
285.829
 20
4.09279
 30
0.0
 11
285.722
 21
3.71658
 31
0.0
  0
LINE
  8
0
 62
     0
 10
285.722
 20
3.71658
 30
0.0
 11
285.586
 21
3.34725
 31
0.0
  0
LINE
  8
0
 62
     0
 10
285.586
 20
3.34725
 30
0.0
 11
285.422
 21
2.99172
 31
0.0
  0
LINE
  8
0
 62
     0
 10
285.422
 20
2.99172
 30
0.0
 11
285.229
 21
2.64859
 31
0.0
  0
LINE
  8
0
 62
     0
 10
285.229
 20
2.64859
 30
0.0
 11
285.011
 21
2.32199
 31
0.0
  0
LINE
  8
0
 62
     0
 10
285.011
 20
2.32199
 30
0.0
 11
284.769
 21
2.01331
 31
0.0
  0
LINE
  8
0
 62
     0
 10
284.769
 20
2.01331
 30
0.0
 11
284.503
 21
1.72531
 31
0.0
  0
LINE
  8
0
 62
     0
 10
284.503
 20
1.72531
 30
0.0
 11
284.214
 21
1.45934
 31
0.0
  0
LINE
  8
0
 62
     0
 10
284.214
 20
1.45934
 30
0.0
 11
283.906
 21
1.21543
 31
0.0
  0
LINE
  8
0
 62
     0
 10
283.906
 20
1.21543
 30
0.0
 11
283.58
 21
0.997701
 31
0.0
  0
LINE
  8
0
 62
     0
 10
283.58
 20
0.997701
 30
0.0
 11
283.236
 21
0.806154
 31
0.0
  0
LINE
  8
0
 62
     0
 10
283.236
 20
0.806154
 30
0.0
 11
282.881
 21
0.640789
 31
0.0
  0
LINE
  8
0
 62
     0
 10
282.881
 20
0.640789
 30
0.0
 11
282.512
 21
0.505739
 31
0.0
  0
LINE
  8
0
 62
     0
 10
282.512
 20
0.505739
 30
0.0
 11
282.134
 21
0.39963
 31
0.0
  0
LINE
  8
0
 62
     0
 10
282.134
 20
0.39963
 30
0.0
 11
281.748
 21
0.322461
 31
0.0
  0
LINE
  8
0
 62
     0
 10
281.748
 20
0.322461
 30
0.0
 11
281.36
 21
0.275608
 31
0.0
  0
LINE
  8
0
 62
     0
 10
281.36
 20
0.275608
 30
0.0
 11
280.967
 21
0.260449
 31
0.0
  0
LINE
  8
0
 62
     0
 10
280.967
 20
0.260449
 30
0.0
 11
5.09598
 21
0.260449
 31
0.0
  0
LINE
  8
0
 62
     0
 10
5.09598
 20
0.260449
 30
0.0
 11
4.70186
 21
0.275608
 31
0.0
  0
LINE
  8
0
 62
     0
 10
4.70186
 20
0.275608
 30
0.0
 11
4.3119
 21
0.322461
 31
0.0
  0
LINE
  8
0
 62
     0
 10
4.3119
 20
0.322461
 30
0.0
 11
3.9274
 21
0.39963
 31
0.0
  0
LINE
  8
0
 62
     0
 10
3.9274
 20
0.39963
 30
0.0
 11
3.54983
 21
0.505739
 31
0.0
  0
LINE
  8
0
 62
     0
 10
3.54983
 20
0.505739
 30
0.0
 11
3.18189
 21
0.640789
 31
0.0
  0
LINE
  8
0
 62
     0
 10
3.18189
 20
0.640789
 30
0.0
 11
2.82498
 21
0.806154
 31
0.0
  0
LINE
  8
0
 62
     0
 10
2.82498
 20
0.806154
 30
0.0
 11
2.48185
 21
0.997701
 31
0.0
  0
LINE
  8
0
 62
     0
 10
2.48185
 20
0.997701
 30
0.0
 11
2.15663
 21
1.21543
 31
0.0
  0
LINE
  8
0
 62
     0
 10
2.15663
 20
1.21543
 30
0.0
 11
1.84795
 21
1.45934
 31
0.0
  0
LINE
  8
0
 62
     0
 10
1.84795
 20
1.45934
 30
0.0
 11
1.55994
 21
1.72531
 31
0.0
  0
LINE
  8
0
 62
     0
 10
1.55994
 20
1.72531
 30
0.0
 11
1.2926
 21
2.01331
 31
0.0
  0
LINE
  8
0
 62
     0
 10
1.2926
 20
2.01331
 30
0.0
 11
1.05006
 21
2.32199
 31
0.0
  0
LINE
  8
0
 62
     0
 10
1.05006
 20
2.32199
 30
0.0
 11
0.830957
 21
2.64859
 31
0.0
  0
LINE
  8
0
 62
     0
 10
0.830957
 20
2.64859
 30
0.0
 11
0.63941
 21
2.99172
 31
0.0
  0
LINE
  8
0
 62
     0
 10
0.63941
 20
2.99172
 30
0.0
 11
0.475424
 21
3.34725
 31
0.0
  0
LINE
  8
0
 62
     0
 10
0.475424
 20
3.34725
 30
0.0
 11
0.338998
 21
3.71658
 31
0.0
  0
LINE
  8
0
 62
     0
 10
0.338998
 20
3.71658
 30
0.0
 11
0.232888
 21
4.09279
 31
0.0
  0
LINE
  8
0
 62
     0
 10
0.232888
 20
4.09279
 30
0.0
 11
0.157097
 21
4.47862
 31
0.0
  0
LINE
  8
0
 62
     0
 10
0.157097
 20
4.47862
 30
0.0
 11
0.110243
 21
4.86862
 31
0.0
  0
LINE
  8
0
 62
     0
 10
0.110243
 20
4.86862
 30
0.0
 11
0.0950846
 21
5.26136
 31
0.0
  0
LINE
  8
0
 62
     0
 10
0.0950846
 20
5.26136
 30
0.0
 11
0.0950846
 21
116.261
 31
0.0
  0
LINE
  8
0
 62
     0
 10
0.0950846
 20
116.261
 30
0.0
 11
0.110243
 21
116.654
 31
0.0
  0
LINE
  8
0
 62
     0
 10
0.110243
 20
116.654
 30
0.0
 11
0.157097
 21
117.044
 31
0.0
  0
LINE
  8
0
 62
     0
 10
0.157097
 20
117.044
 30
0.0
 11
0.232888
 21
117.428
 31
0.0
  0
LINE
  8
0
 62
     0
 10
0.232888
 20
117.428
 30
0.0
 11
0.338998
 21
117.806
 31
0.0
  0
LINE
  8
0
 62
     0
 10
0.338998
 20
117.806
 30
0.0
 11
0.475424
 21
118.174
 31
0.0
  0
LINE
  8
0
 62
     0
 10
0.475424
 20
118.174
 30
0.0
 11
0.63941
 21
118.531
 31
0.0
  0
LINE
  8
0
 62
     0
 10
0.63941
 20
118.531
 30
0.0
 11
0.830957
 21
118.874
 31
0.0
  0
LINE
  8
0
 62
     0
 10
0.830957
 20
118.874
 30
0.0
 11
1.05006
 21
119.199
 31
0.0
  0
LINE
  8
0
 62
     0
 10
1.05006
 20
119.199
 30
0.0
 11
1.2926
 21
119.508
 31
0.0
  0
LINE
  8
0
 62
     0
 10
1.2926
 20
119.508
 30
0.0
 11
1.55994
 21
119.796
 31
0.0
  0
LINE
  8
0
 62
     0
 10
1.55994
 20
119.796
 30
0.0
 11
1.84795
 21
120.063
 31
0.0
  0
LINE
  8
0
 62
     0
 10
1.84795
 20
120.063
 30
0.0
 11
2.15663
 21
120.305
 31
0.0
  0
LINE
  8
0
 62
     0
 10
2.15663
 20
120.305
 30
0.0
 11
2.48185
 21
120.525
 31
0.0
  0
LINE
  8
0
 62
     0
 10
2.48185
 20
120.525
 30
0.0
 11
2.82498
 21
120.716
 31
0.0
  0
LINE
  8
0
 62
     0
 10
2.82498
 20
120.716
 30
0.0
 11
3.18189
 21
120.88
 31
0.0
  0
LINE
  8
0
 62
     0
 10
3.18189
 20
120.88
 30
0.0
 11
3.54983
 21
121.017
 31
0.0
  0
LINE
  8
0
 62
     0
 10
3.54983
 20
121.017
 30
0.0
 11
3.9274
 21
121.123
 31
0.0
  0
LINE
  8
0
 62
     0
 10
3.9274
 20
121.123
 30
0.0
 11
4.3119
 21
121.199
 31
0.0
  0
LINE
  8
0
 62
     0
 10
4.3119
 20
121.199
 30
0.0
 11
4.70186
 21
121.245
 31
0.0
  0
LINE
  8
0
 62
     0
 10
4.70186
 20
121.245
 30
0.0
 11
5.09598
 21
121.26
 31
0.0
  0
LINE
  8
0
 62
     0
 10
5.09598
 20
121.26
 30
0.0
 11
280.967
 21
121.26
 31
0.0
  0
LINE
  8
0
 62
     0
 10
280.967
 20
121.26
 30
0.0
 11
281.36
 21
121.245
 31
0.0
  0
LINE
  8
0
 62
     0
 10
120.216
 20
10.7542
 30
0.0
 11
133.857
 21
8.34954
 31
0.0
  0
LINE
  8
0
 62
     0
 10
133.857
 20
8.34954
 30
0.0
 11
136.262
 21
21.988
 31
0.0
  0
LINE
  8
0
 62
     0
 10
136.262
 20
21.988
 30
0.0
 11
122.622
 21
24.3926
 31
0.0
  0
LINE
  8
0
 62
     0
 10
122.622
 20
24.3926
 30
0.0
 11
120.216
 21
10.7542
 31
0.0
  0
LINE
  8
0
 62
     0
 10
150.428
 20
22.0472
 30
0.0
 11
152.834
 21
8.4074
 31
0.0
  0
LINE
  8
0
 62
     0
 10
152.834
 20
8.4074
 30
0.0
 11
166.473
 21
10.8135
 31
0.0
  0
LINE
  8
0
 62
     0
 10
166.473
 20
10.8135
 30
0.0
 11
164.068
 21
24.4519
 31
0.0
  0
LINE
  8
0
 62
     0
 10
164.068
 20
24.4519
 30
0.0
 11
150.428
 21
22.0472
 31
0.0
  0
LINE
  8
0
 62
     0
 10
102.284
 20
18.7524
 30
0.0
 11
115.922
 21
16.3477
 31
0.0
  0
LINE
  8
0
 62
     0
 10
115.922
 20
16.3477
 30
0.0
 11
118.328
 21
29.9861
 31
0.0
  0
LINE
  8
0
 62
     0
 10
118.328
 20
29.9861
 30
0.0
 11
104.688
 21
32.3922
 31
0.0
  0
LINE
  8
0
 62
     0
 10
104.688
 20
32.3922
 30
0.0
 11
102.284
 21
18.7524
 31
0.0
  0
LINE
  8
0
 62
     0
 10
168.362
 20
30.0454
 30
0.0
 11
170.767
 21
16.4055
 31
0.0
  0
LINE
  8
0
 62
     0
 10
170.767
 20
16.4055
 30
0.0
 11
184.406
 21
18.8116
 31
0.0
  0
LINE
  8
0
 62
     0
 10
184.406
 20
18.8116
 30
0.0
 11
182.002
 21
32.4501
 31
0.0
  0
LINE
  8
0
 62
     0
 10
182.002
 20
32.4501
 30
0.0
 11
168.362
 21
30.0454
 31
0.0
  0
LINE
  8
0
 62
     0
 10
84.6804
 20
28.626
 30
0.0
 11
98.3202
 21
26.2213
 31
0.0
  0
LINE
  8
0
 62
     0
 10
98.3202
 20
26.2213
 30
0.0
 11
100.725
 21
39.8611
 31
0.0
  0
LINE
  8
0
 62
     0
 10
100.725
 20
39.8611
 30
0.0
 11
87.085
 21
42.266
 31
0.0
  0
LINE
  8
0
 62
     0
 10
87.085
 20
42.266
 30
0.0
 11
84.6804
 21
28.626
 31
0.0
  0
LINE
  8
0
 62
     0
 10
185.965
 20
39.9203
 30
0.0
 11
188.37
 21
26.2806
 31
0.0
  0
LINE
  8
0
 62
     0
 10
188.37
 20
26.2806
 30
0.0
 11
202.009
 21
28.6852
 31
0.0
  0
LINE
  8
0
 62
     0
 10
202.009
 20
28.6852
 30
0.0
 11
199.605
 21
42.3252
 31
0.0
  0
LINE
  8
0
 62
     0
 10
199.605
 20
42.3252
 30
0.0
 11
185.965
 21
39.9203
 31
0.0
  0
LINE
  8
0
 62
     0
 10
123.524
 20
29.5135
 30
0.0
 11
137.165
 21
27.1088
 31
0.0
  0
LINE
  8
0
 62
     0
 10
137.165
 20
27.1088
 30
0.0
 11
139.569
 21
40.7487
 31
0.0
  0
LINE
  8
0
 62
     0
 10
139.569
 20
40.7487
 30
0.0
 11
125.929
 21
43.1546
 31
0.0
  0
LINE
  8
0
 62
     0
 10
125.929
 20
43.1546
 30
0.0
 11
123.524
 21
29.5135
 31
0.0
  0
LINE
  8
0
 62
     0
 10
147.121
 20
40.8079
 30
0.0
 11
149.526
 21
27.168
 31
0.0
  0
LINE
  8
0
 62
     0
 10
149.526
 20
27.168
 30
0.0
 11
163.164
 21
29.5727
 31
0.0
  0
LINE
  8
0
 62
     0
 10
163.164
 20
29.5727
 30
0.0
 11
160.759
 21
43.2125
 31
0.0
  0
LINE
  8
0
 62
     0
 10
160.759
 20
43.2125
 30
0.0
 11
147.121
 21
40.8079
 31
0.0
  0
LINE
  8
0
 62
     0
 10
27.5718
 20
33.8598
 30
0.0
 11
41.2115
 21
31.4551
 31
0.0
  0
LINE
  8
0
 62
     0
 10
41.2115
 20
31.4551
 30
0.0
 11
43.6164
 21
45.0949
 31
0.0
  0
LINE
  8
0
 62
     0
 10
43.6164
 20
45.0949
 30
0.0
 11
29.9765
 21
47.4998
 31
0.0
  0
LINE
  8
0
 62
     0
 10
29.9765
 20
47.4998
 30
0.0
 11
27.5718
 21
33.8598
 31
0.0
  0
LINE
  8
0
 62
     0
 10
243.073
 20
45.1527
 30
0.0
 11
245.478
 21
31.5143
 31
0.0
  0
LINE
  8
0
 62
     0
 10
245.478
 20
31.5143
 30
0.0
 11
259.118
 21
33.919
 31
0.0
  0
LINE
  8
0
 62
     0
 10
259.118
 20
33.919
 30
0.0
 11
256.713
 21
47.5576
 31
0.0
  0
LINE
  8
0
 62
     0
 10
256.713
 20
47.5576
 30
0.0
 11
243.073
 21
45.1527
 31
0.0
  0
LINE
  8
0
 62
     0
 10
47.1593
 20
35.2419
 30
0.0
 11
60.7991
 21
32.8373
 31
0.0
  0
LINE
  8
0
 62
     0
 10
60.7991
 20
32.8373
 30
0.0
 11
63.2051
 21
46.4771
 31
0.0
  0
LINE
  8
0
 62
     0
 10
63.2051
 20
46.4771
 30
0.0
 11
49.5639
 21
48.8819
 31
0.0
  0
LINE
  8
0
 62
     0
 10
49.5639
 20
48.8819
 30
0.0
 11
47.1593
 21
35.2419
 31
0.0
  0
LINE
  8
0
 62
     0
 10
223.486
 20
46.5363
 30
0.0
 11
225.891
 21
32.8965
 31
0.0
  0
LINE
  8
0
 62
     0
 10
225.891
 20
32.8965
 30
0.0
 11
239.53
 21
35.3011
 31
0.0
  0
LINE
  8
0
 62
     0
 10
239.53
 20
35.3011
 30
0.0
 11
237.126
 21
48.9409
 31
0.0
  0
LINE
  8
0
 62
     0
 10
237.126
 20
48.9409
 30
0.0
 11
223.486
 21
46.5363
 31
0.0
  0
LINE
  8
0
 62
     0
 10
8.81119
 20
37.1683
 30
0.0
 11
22.451
 21
34.7624
 31
0.0
  0
LINE
  8
0
 62
     0
 10
22.451
 20
34.7624
 30
0.0
 11
24.8557
 21
48.4036
 31
0.0
  0
LINE
  8
0
 62
     0
 10
24.8557
 20
48.4036
 30
0.0
 11
11.2159
 21
50.8081
 31
0.0
  0
LINE
  8
0
 62
     0
 10
11.2159
 20
50.8081
 30
0.0
 11
8.81119
 21
37.1683
 31
0.0
  0
LINE
  8
0
 62
     0
 10
261.834
 20
48.4614
 30
0.0
 11
264.239
 21
34.8216
 31
0.0
  0
LINE
  8
0
 62
     0
 10
264.239
 20
34.8216
 30
0.0
 11
277.879
 21
37.2276
 31
0.0
  0
LINE
  8
0
 62
     0
 10
277.879
 20
37.2276
 30
0.0
 11
275.474
 21
50.8663
 31
0.0
  0
LINE
  8
0
 62
     0
 10
275.474
 20
50.8663
 30
0.0
 11
261.834
 21
48.4614
 31
0.0
  0
LINE
  8
0
 62
     0
 10
105.592
 20
37.513
 30
0.0
 11
119.231
 21
35.1069
 31
0.0
  0
LINE
  8
0
 62
     0
 10
119.231
 20
35.1069
 30
0.0
 11
121.635
 21
48.7468
 31
0.0
  0
LINE
  8
0
 62
     0
 10
121.635
 20
48.7468
 30
0.0
 11
107.997
 21
51.1514
 31
0.0
  0
LINE
  8
0
 62
     0
 10
107.997
 20
51.1514
 30
0.0
 11
105.592
 21
37.513
 31
0.0
  0
LINE
  8
0
 62
     0
 10
165.053
 20
48.8061
 30
0.0
 11
167.458
 21
35.1662
 31
0.0
  0
LINE
  8
0
 62
     0
 10
167.458
 20
35.1662
 30
0.0
 11
181.099
 21
37.5708
 31
0.0
  0
LINE
  8
0
 62
     0
 10
181.099
 20
37.5708
 30
0.0
 11
178.693
 21
51.2106
 31
0.0
  0
LINE
  8
0
 62
     0
 10
178.693
 20
51.2106
 30
0.0
 11
165.053
 21
48.8061
 31
0.0
  0
LINE
  8
0
 62
     0
 10
67.0775
 20
38.4997
 30
0.0
 11
80.7173
 21
36.0948
 31
0.0
  0
LINE
  8
0
 62
     0
 10
80.7173
 20
36.0948
 30
0.0
 11
83.1219
 21
49.7346
 31
0.0
  0
LINE
  8
0
 62
     0
 10
83.1219
 20
49.7346
 30
0.0
 11
69.4821
 21
52.1395
 31
0.0
  0
LINE
  8
0
 62
     0
 10
69.4821
 20
52.1395
 30
0.0
 11
67.0775
 21
38.4997
 31
0.0
  0
LINE
  8
0
 62
     0
 10
203.568
 20
49.7939
 30
0.0
 11
205.972
 21
36.1541
 31
0.0
  0
LINE
  8
0
 62
     0
 10
205.972
 20
36.1541
 30
0.0
 11
219.612
 21
38.559
 31
0.0
  0
LINE
  8
0
 62
     0
 10
219.612
 20
38.559
 30
0.0
 11
217.208
 21
52.1988
 31
0.0
  0
LINE
  8
0
 62
     0
 10
217.208
 20
52.1988
 30
0.0
 11
203.568
 21
49.7939
 31
0.0
  0
LINE
  8
0
 62
     0
 10
87.9891
 20
47.3865
 30
0.0
 11
101.629
 21
44.982
 31
0.0
  0
LINE
  8
0
 62
     0
 10
101.629
 20
44.982
 30
0.0
 11
104.033
 21
58.6218
 31
0.0
  0
LINE
  8
0
 62
     0
 10
104.033
 20
58.6218
 30
0.0
 11
90.3937
 21
61.0263
 31
0.0
  0
LINE
  8
0
 62
     0
 10
90.3937
 20
61.0263
 30
0.0
 11
87.9891
 21
47.3865
 31
0.0
  0
LINE
  8
0
 62
     0
 10
182.656
 20
58.6796
 30
0.0
 11
185.061
 21
45.0413
 31
0.0
  0
LINE
  8
0
 62
     0
 10
185.061
 20
45.0413
 30
0.0
 11
198.702
 21
47.4458
 31
0.0
  0
LINE
  8
0
 62
     0
 10
198.702
 20
47.4458
 30
0.0
 11
196.296
 21
61.0856
 31
0.0
  0
LINE
  8
0
 62
     0
 10
196.296
 20
61.0856
 30
0.0
 11
182.656
 21
58.6796
 31
0.0
  0
LINE
  8
0
 62
     0
 10
30.8791
 20
52.6203
 30
0.0
 11
44.5188
 21
50.2158
 31
0.0
  0
LINE
  8
0
 62
     0
 10
44.5188
 20
50.2158
 30
0.0
 11
46.9251
 21
63.8556
 31
0.0
  0
LINE
  8
0
 62
     0
 10
46.9251
 20
63.8556
 30
0.0
 11
33.2851
 21
66.2601
 31
0.0
  0
LINE
  8
0
 62
     0
 10
33.2851
 20
66.2601
 30
0.0
 11
30.8791
 21
52.6203
 31
0.0
  0
LINE
  8
0
 62
     0
 10
239.765
 20
63.9135
 30
0.0
 11
242.171
 21
50.2737
 31
0.0
  0
LINE
  8
0
 62
     0
 10
242.171
 20
50.2737
 30
0.0
 11
255.809
 21
52.6796
 31
0.0
  0
LINE
  8
0
 62
     0
 10
255.809
 20
52.6796
 30
0.0
 11
253.406
 21
66.3194
 31
0.0
  0
LINE
  8
0
 62
     0
 10
253.406
 20
66.3194
 30
0.0
 11
239.765
 21
63.9135
 31
0.0
  0
LINE
  8
0
 62
     0
 10
50.468
 20
54.0025
 30
0.0
 11
64.1078
 21
51.598
 31
0.0
  0
LINE
  8
0
 62
     0
 10
64.1078
 20
51.598
 30
0.0
 11
66.5124
 21
65.2378
 31
0.0
  0
LINE
  8
0
 62
     0
 10
66.5124
 20
65.2378
 30
0.0
 11
52.8726
 21
67.6423
 31
0.0
  0
LINE
  8
0
 62
     0
 10
52.8726
 20
67.6423
 30
0.0
 11
50.468
 21
54.0025
 31
0.0
  0
LINE
  8
0
 62
     0
 10
220.177
 20
65.2956
 30
0.0
 11
222.582
 21
51.6572
 31
0.0
  0
LINE
  8
0
 62
     0
 10
222.582
 20
51.6572
 30
0.0
 11
236.222
 21
54.0618
 31
0.0
  0
LINE
  8
0
 62
     0
 10
236.222
 20
54.0618
 30
0.0
 11
233.817
 21
67.7016
 31
0.0
  0
LINE
  8
0
 62
     0
 10
233.817
 20
67.7016
 30
0.0
 11
220.177
 21
65.2956
 31
0.0
  0
LINE
  8
0
 62
     0
 10
12.1199
 20
55.929
 30
0.0
 11
25.7583
 21
53.5245
 31
0.0
  0
LINE
  8
0
 62
     0
 10
25.7583
 20
53.5245
 30
0.0
 11
28.163
 21
67.1629
 31
0.0
  0
LINE
  8
0
 62
     0
 10
28.163
 20
67.1629
 30
0.0
 11
14.5245
 21
69.5674
 31
0.0
  0
LINE
  8
0
 62
     0
 10
14.5245
 20
69.5674
 30
0.0
 11
12.1199
 21
55.929
 31
0.0
  0
LINE
  8
0
 62
     0
 10
258.527
 20
67.2222
 30
0.0
 11
260.931
 21
53.5824
 31
0.0
  0
LINE
  8
0
 62
     0
 10
260.931
 20
53.5824
 30
0.0
 11
274.57
 21
55.9869
 31
0.0
  0
LINE
  8
0
 62
     0
 10
274.57
 20
55.9869
 30
0.0
 11
272.165
 21
69.6267
 31
0.0
  0
LINE
  8
0
 62
     0
 10
272.165
 20
69.6267
 30
0.0
 11
258.527
 21
67.2222
 31
0.0
  0
LINE
  8
0
 62
     0
 10
108.899
 20
56.2737
 30
0.0
 11
122.538
 21
53.8674
 31
0.0
  0
LINE
  8
0
 62
     0
 10
122.538
 20
53.8674
 30
0.0
 11
124.944
 21
67.5086
 31
0.0
  0
LINE
  8
0
 62
     0
 10
124.944
 20
67.5086
 30
0.0
 11
111.304
 21
69.9135
 31
0.0
  0
LINE
  8
0
 62
     0
 10
111.304
 20
69.9135
 30
0.0
 11
108.899
 21
56.2737
 31
0.0
  0
LINE
  8
0
 62
     0
 10
161.746
 20
67.5665
 30
0.0
 11
164.151
 21
53.9267
 31
0.0
  0
LINE
  8
0
 62
     0
 10
164.151
 20
53.9267
 30
0.0
 11
177.79
 21
56.3316
 31
0.0
  0
LINE
  8
0
 62
     0
 10
177.79
 20
56.3316
 30
0.0
 11
175.386
 21
69.9728
 31
0.0
  0
LINE
  8
0
 62
     0
 10
175.386
 20
69.9728
 30
0.0
 11
161.746
 21
67.5665
 31
0.0
  0
LINE
  8
0
 62
     0
 10
70.3862
 20
57.2615
 30
0.0
 11
84.026
 21
54.8555
 31
0.0
  0
LINE
  8
0
 62
     0
 10
84.026
 20
54.8555
 30
0.0
 11
86.4306
 21
68.4953
 31
0.0
  0
LINE
  8
0
 62
     0
 10
86.4306
 20
68.4953
 30
0.0
 11
72.7908
 21
70.9013
 31
0.0
  0
LINE
  8
0
 62
     0
 10
72.7908
 20
70.9013
 30
0.0
 11
70.3862
 21
57.2615
 31
0.0
  0
LINE
  8
0
 62
     0
 10
200.259
 20
68.5546
 30
0.0
 11
202.664
 21
54.9148
 31
0.0
  0
LINE
  8
0
 62
     0
 10
202.664
 20
54.9148
 30
0.0
 11
216.305
 21
57.3193
 31
0.0
  0
LINE
  8
0
 62
     0
 10
216.305
 20
57.3193
 30
0.0
 11
213.899
 21
70.9595
 31
0.0
  0
LINE
  8
0
 62
     0
 10
213.899
 20
70.9595
 30
0.0
 11
200.259
 21
68.5546
 31
0.0
  0
LINE
  8
0
 62
     0
 10
91.2964
 20
66.1472
 30
0.0
 11
104.936
 21
63.7427
 31
0.0
  0
LINE
  8
0
 62
     0
 10
104.936
 20
63.7427
 30
0.0
 11
107.341
 21
77.3825
 31
0.0
  0
LINE
  8
0
 62
     0
 10
107.341
 20
77.3825
 30
0.0
 11
93.701
 21
79.787
 31
0.0
  0
LINE
  8
0
 62
     0
 10
93.701
 20
79.787
 30
0.0
 11
91.2964
 21
66.1472
 31
0.0
  0
LINE
  8
0
 62
     0
 10
179.349
 20
77.4418
 30
0.0
 11
181.754
 21
63.8006
 31
0.0
  0
LINE
  8
0
 62
     0
 10
181.754
 20
63.8006
 30
0.0
 11
195.393
 21
66.2065
 31
0.0
  0
LINE
  8
0
 62
     0
 10
195.393
 20
66.2065
 30
0.0
 11
192.989
 21
79.8463
 31
0.0
  0
LINE
  8
0
 62
     0
 10
192.989
 20
79.8463
 30
0.0
 11
179.349
 21
77.4418
 31
0.0
  0
LINE
  8
0
 62
     0
 10
34.1878
 20
71.3811
 30
0.0
 11
47.8275
 21
68.9762
 31
0.0
  0
LINE
  8
0
 62
     0
 10
47.8275
 20
68.9762
 30
0.0
 11
50.2324
 21
82.6163
 31
0.0
  0
LINE
  8
0
 62
     0
 10
50.2324
 20
82.6163
 30
0.0
 11
36.5926
 21
85.0209
 31
0.0
  0
LINE
  8
0
 62
     0
 10
36.5926
 20
85.0209
 30
0.0
 11
34.1878
 21
71.3811
 31
0.0
  0
LINE
  8
0
 62
     0
 10
236.457
 20
82.6752
 30
0.0
 11
238.862
 21
69.0354
 31
0.0
  0
LINE
  8
0
 62
     0
 10
238.862
 20
69.0354
 30
0.0
 11
252.502
 21
71.4403
 31
0.0
  0
LINE
  8
0
 62
     0
 10
252.502
 20
71.4403
 30
0.0
 11
250.098
 21
85.0801
 31
0.0
  0
LINE
  8
0
 62
     0
 10
250.098
 20
85.0801
 30
0.0
 11
236.457
 21
82.6752
 31
0.0
  0
LINE
  8
0
 62
     0
 10
53.7753
 20
72.7632
 30
0.0
 11
67.4151
 21
70.3584
 31
0.0
  0
LINE
  8
0
 62
     0
 10
67.4151
 20
70.3584
 30
0.0
 11
69.8211
 21
83.9982
 31
0.0
  0
LINE
  8
0
 62
     0
 10
69.8211
 20
83.9982
 30
0.0
 11
56.1799
 21
86.403
 31
0.0
  0
LINE
  8
0
 62
     0
 10
56.1799
 20
86.403
 30
0.0
 11
53.7753
 21
72.7632
 31
0.0
  0
LINE
  8
0
 62
     0
 10
216.87
 20
84.0574
 30
0.0
 11
219.275
 21
70.4176
 31
0.0
  0
LINE
  8
0
 62
     0
 10
219.275
 20
70.4176
 30
0.0
 11
232.914
 21
72.8225
 31
0.0
  0
LINE
  8
0
 62
     0
 10
232.914
 20
72.8225
 30
0.0
 11
230.51
 21
86.4623
 31
0.0
  0
LINE
  8
0
 62
     0
 10
230.51
 20
86.4623
 30
0.0
 11
216.87
 21
84.0574
 31
0.0
  0
LINE
  8
0
 62
     0
 10
15.4271
 20
74.6898
 30
0.0
 11
29.0669
 21
72.2835
 31
0.0
  0
LINE
  8
0
 62
     0
 10
29.0669
 20
72.2835
 30
0.0
 11
31.4716
 21
85.9236
 31
0.0
  0
LINE
  8
0
 62
     0
 10
31.4716
 20
85.9236
 30
0.0
 11
17.8318
 21
88.3296
 31
0.0
  0
LINE
  8
0
 62
     0
 10
17.8318
 20
88.3296
 30
0.0
 11
15.4271
 21
74.6898
 31
0.0
  0
LINE
  8
0
 62
     0
 10
255.218
 20
85.9825
 30
0.0
 11
257.623
 21
72.3427
 31
0.0
  0
LINE
  8
0
 62
     0
 10
257.623
 20
72.3427
 30
0.0
 11
271.263
 21
74.7476
 31
0.0
  0
LINE
  8
0
 62
     0
 10
271.263
 20
74.7476
 30
0.0
 11
268.858
 21
88.3888
 31
0.0
  0
LINE
  8
0
 62
     0
 10
268.858
 20
88.3888
 30
0.0
 11
255.218
 21
85.9825
 31
0.0
  0
LINE
  8
0
 62
     0
 10
112.208
 20
75.0341
 30
0.0
 11
125.846
 21
72.6295
 31
0.0
  0
LINE
  8
0
 62
     0
 10
125.846
 20
72.6295
 30
0.0
 11
128.251
 21
86.2679
 31
0.0
  0
LINE
  8
0
 62
     0
 10
128.251
 20
86.2679
 30
0.0
 11
114.613
 21
88.6725
 31
0.0
  0
LINE
  8
0
 62
     0
 10
114.613
 20
88.6725
 30
0.0
 11
112.208
 21
75.0341
 31
0.0
  0
LINE
  8
0
 62
     0
 10
158.437
 20
86.3272
 30
0.0
 11
160.842
 21
72.6874
 31
0.0
  0
LINE
  8
0
 62
     0
 10
160.842
 20
72.6874
 30
0.0
 11
174.483
 21
75.0933
 31
0.0
  0
LINE
  8
0
 62
     0
 10
174.483
 20
75.0933
 30
0.0
 11
172.077
 21
88.7317
 31
0.0
  0
LINE
  8
0
 62
     0
 10
172.077
 20
88.7317
 30
0.0
 11
158.437
 21
86.3272
 31
0.0
  0
LINE
  8
0
 62
     0
 10
73.6935
 20
76.0222
 30
0.0
 11
87.3333
 21
73.6163
 31
0.0
  0
LINE
  8
0
 62
     0
 10
87.3333
 20
73.6163
 30
0.0
 11
89.7378
 21
87.2561
 31
0.0
  0
LINE
  8
0
 62
     0
 10
89.7378
 20
87.2561
 30
0.0
 11
76.098
 21
89.6606
 31
0.0
  0
LINE
  8
0
 62
     0
 10
76.098
 20
89.6606
 30
0.0
 11
73.6935
 21
76.0222
 31
0.0
  0
LINE
  8
0
 62
     0
 10
196.952
 20
87.3153
 30
0.0
 11
199.356
 21
73.6755
 31
0.0
  0
LINE
  8
0
 62
     0
 10
199.356
 20
73.6755
 30
0.0
 11
212.997
 21
76.0801
 31
0.0
  0
LINE
  8
0
 62
     0
 10
212.997
 20
76.0801
 30
0.0
 11
210.592
 21
89.7199
 31
0.0
  0
LINE
  8
0
 62
     0
 10
210.592
 20
89.7199
 30
0.0
 11
196.952
 21
87.3153
 31
0.0
  0
LINE
  8
0
 62
     0
 10
94.6051
 20
84.908
 30
0.0
 11
108.245
 21
82.5031
 31
0.0
  0
LINE
  8
0
 62
     0
 10
108.245
 20
82.5031
 30
0.0
 11
110.649
 21
96.1415
 31
0.0
  0
LINE
  8
0
 62
     0
 10
110.649
 20
96.1415
 30
0.0
 11
97.0097
 21
98.5478
 31
0.0
  0
LINE
  8
0
 62
     0
 10
97.0097
 20
98.5478
 30
0.0
 11
94.6051
 21
84.908
 31
0.0
  0
LINE
  8
0
 62
     0
 10
176.04
 20
96.2007
 30
0.0
 11
178.445
 21
82.5623
 31
0.0
  0
LINE
  8
0
 62
     0
 10
178.445
 20
82.5623
 30
0.0
 11
192.086
 21
84.9672
 31
0.0
  0
LINE
  8
0
 62
     0
 10
192.086
 20
84.9672
 30
0.0
 11
189.68
 21
98.6056
 31
0.0
  0
LINE
  8
0
 62
     0
 10
189.68
 20
98.6056
 30
0.0
 11
176.04
 21
96.2007
 31
0.0
  0
LINE
  8
0
 62
     0
 10
37.495
 20
90.1418
 30
0.0
 11
51.1348
 21
87.7369
 31
0.0
  0
LINE
  8
0
 62
     0
 10
51.1348
 20
87.7369
 30
0.0
 11
53.5411
 21
101.375
 31
0.0
  0
LINE
  8
0
 62
     0
 10
53.5411
 20
101.375
 30
0.0
 11
39.9009
 21
103.782
 31
0.0
  0
LINE
  8
0
 62
     0
 10
39.9009
 20
103.782
 30
0.0
 11
37.495
 21
90.1418
 31
0.0
  0
LINE
  8
0
 62
     0
 10
233.149
 20
101.435
 30
0.0
 11
235.555
 21
87.7962
 31
0.0
  0
LINE
  8
0
 62
     0
 10
235.555
 20
87.7962
 30
0.0
 11
249.195
 21
90.201
 31
0.0
  0
LINE
  8
0
 62
     0
 10
249.195
 20
90.201
 30
0.0
 11
246.79
 21
103.841
 31
0.0
  0
LINE
  8
0
 62
     0
 10
246.79
 20
103.841
 30
0.0
 11
233.149
 21
101.435
 31
0.0
  0
LINE
  8
0
 62
     0
 10
57.084
 20
91.524
 30
0.0
 11
70.7238
 21
89.1191
 31
0.0
  0
LINE
  8
0
 62
     0
 10
70.7238
 20
89.1191
 30
0.0
 11
73.1284
 21
102.757
 31
0.0
  0
LINE
  8
0
 62
     0
 10
73.1284
 20
102.757
 30
0.0
 11
59.4886
 21
105.164
 31
0.0
  0
LINE
  8
0
 62
     0
 10
59.4886
 20
105.164
 30
0.0
 11
57.084
 21
91.524
 31
0.0
  0
LINE
  8
0
 62
     0
 10
213.561
 20
102.817
 30
0.0
 11
215.966
 21
89.1783
 31
0.0
  0
LINE
  8
0
 62
     0
 10
215.966
 20
89.1783
 30
0.0
 11
229.606
 21
91.5829
 31
0.0
  0
LINE
  8
0
 62
     0
 10
229.606
 20
91.5829
 30
0.0
 11
227.201
 21
105.222
 31
0.0
  0
LINE
  8
0
 62
     0
 10
227.201
 20
105.222
 30
0.0
 11
213.561
 21
102.817
 31
0.0
  0
LINE
  8
0
 62
     0
 10
18.7358
 20
93.4501
 30
0.0
 11
32.3742
 21
91.0456
 31
0.0
  0
LINE
  8
0
 62
     0
 10
32.3742
 20
91.0456
 30
0.0
 11
34.7789
 21
104.684
 31
0.0
  0
LINE
  8
0
 62
     0
 10
34.7789
 20
104.684
 30
0.0
 11
21.1405
 21
107.089
 31
0.0
  0
LINE
  8
0
 62
     0
 10
21.1405
 20
107.089
 30
0.0
 11
18.7358
 21
93.4501
 31
0.0
  0
LINE
  8
0
 62
     0
 10
251.911
 20
104.743
 30
0.0
 11
254.316
 21
91.1035
 31
0.0
  0
LINE
  8
0
 62
     0
 10
254.316
 20
91.1035
 30
0.0
 11
267.954
 21
93.5094
 31
0.0
  0
LINE
  8
0
 62
     0
 10
267.954
 20
93.5094
 30
0.0
 11
265.549
 21
107.148
 31
0.0
  0
LINE
  8
0
 62
     0
 10
265.549
 20
107.148
 30
0.0
 11
251.911
 21
104.743
 31
0.0
  0
LINE
  8
0
 62
     0
 10
115.515
 20
93.7934
 30
0.0
 11
129.154
 21
91.3888
 31
0.0
  0
LINE
  8
0
 62
     0
 10
129.154
 20
91.3888
 30
0.0
 11
131.56
 21
105.029
 31
0.0
  0
LINE
  8
0
 62
     0
 10
131.56
 20
105.029
 30
0.0
 11
117.92
 21
107.435
 31
0.0
  0
LINE
  8
0
 62
     0
 10
117.92
 20
107.435
 30
0.0
 11
115.515
 21
93.7934
 31
0.0
  0
LINE
  8
0
 62
     0
 10
155.13
 20
105.088
 30
0.0
 11
157.535
 21
91.4481
 31
0.0
  0
LINE
  8
0
 62
     0
 10
157.535
 20
91.4481
 30
0.0
 11
171.174
 21
93.8541
 31
0.0
  0
LINE
  8
0
 62
     0
 10
171.174
 20
93.8541
 30
0.0
 11
168.77
 21
107.492
 31
0.0
  0
LINE
  8
0
 62
     0
 10
168.77
 20
107.492
 30
0.0
 11
155.13
 21
105.088
 31
0.0
  0
LINE
  8
0
 62
     0
 10
77.0019
 20
94.7815
 30
0.0
 11
90.642
 21
92.3766
 31
0.0
  0
LINE
  8
0
 62
     0
 10
90.642
 20
92.3766
 30
0.0
 11
93.0465
 21
106.017
 31
0.0
  0
LINE
  8
0
 62
     0
 10
93.0465
 20
106.017
 30
0.0
 11
79.4067
 21
108.423
 31
0.0
  0
LINE
  8
0
 62
     0
 10
79.4067
 20
108.423
 30
0.0
 11
77.0019
 21
94.7815
 31
0.0
  0
LINE
  8
0
 62
     0
 10
193.643
 20
106.076
 30
0.0
 11
196.048
 21
92.4359
 31
0.0
  0
LINE
  8
0
 62
     0
 10
196.048
 20
92.4359
 30
0.0
 11
209.689
 21
94.8408
 31
0.0
  0
LINE
  8
0
 62
     0
 10
209.689
 20
94.8408
 30
0.0
 11
207.283
 21
108.481
 31
0.0
  0
LINE
  8
0
 62
     0
 10
207.283
 20
108.481
 30
0.0
 11
193.643
 21
106.076
 31
0.0
  0
ENDSEC
  0
EOF
